# xmcd
#
# Track frame offsets: 
#        150
#        35661
#        64590
#        87007
#        118361
#        147846
#        172563
#        201676
#        238197
#        266688
#        301407
#        326869
#
# Disc length: 4683 seconds
#
# Revision: 0
# Processed by: cddbd v1.5.2PL0 Copyright (c) Steve Scherf et al.
# Submitted via: ExactAudioCopy v0.99pb3
#
DISCID=b112490c
DTITLE=Various Artist - Trance Therapy: Vocal Session, mixed by Ukume
DYEAR=2008
DGENRE=Trance
TTITLE0=Cerf, Mitiska and Jaren - Light The Skies (Retrobyte's Classic E
TTITLE0=lectrobounce Mix, AvB Intro Mix)
TTITLE1=Andy Duguit feat. Leah - Don't Belong
TTITLE2=Mads Arp feat. Julie Harrington - Slow It Down (Mathilda Mix)
TTITLE3=Ridgewalkers feat. El - Find (Andy Moor Remix)
TTITLE4=John O'Callaghan feat. Audrey Gallagher - Big Sky (Original Mi
TTITLE4=x)
TTITLE5=Above and Beyond - Good For Me (Redanka Remix)
TTITLE6=Taxigirl - High Glow
TTITLE7=DJ Shah feat. Adriana Thorpe - Who Will Find Me (Original Summ
TTITLE7=er Sunrise Mix)
TTITLE8=Cosmic Gate - Body Of Conflict (Extended Vocal Mix)
TTITLE9=First State feat. Anita Kelsey - Falling (Extended Mix)
TTITLE10=Dash Berlin - Till The Sky Falls Down (Vocal Mix)
TTITLE11=Armin van Buuren and DJ Shah feat. Chris Jones - Going Wrong (A
TTITLE11=rmin's Universal Religion Mix)
EXTD=
EXTT0=
EXTT1=
EXTT2=
EXTT3=
EXTT4=
EXTT5=
EXTT6=
EXTT7=
EXTT8=
EXTT9=
EXTT10=
EXTT11=
PLAYORDER=
